<?xml version="1.0" standalone="no"?><!DOCTYPE svg PUBLIC "-//W3C//DTD SVG 1.1//EN" "http://www.w3.org/Graphics/SVG/1.1/DTD/svg11.dtd"><svg t="1701083610535" class="icon" viewBox="0 0 1143 1024" version="1.1" xmlns="http://www.w3.org/2000/svg" p-id="6559" width="17.859375" height="16" xmlns:xlink="http://www.w3.org/1999/xlink"><path d="M758.722206 1007.1116q93.23263-8.4442 143.811223-21.132152 47.633949-11.82188 54.259399-25.462511 2.035269-4.027234-12.991077-11.735273a416.277414 416.277414 0 0 0-50.491987-19.226794 419.178754 419.178754 0 0 1-52.873683-20.179474q-29.576352-15.329471-20.179473-34.123229 6.365628-12.731256 47.633949-28.233941 23.470546-8.660718 85.611198-28.017423 86.607181-26.761619 120.383981-40.835285 52.743773-21.911617 52.743773-35.725462 0-20.829027-38.626803-43.996448-41.787965-25.072779-126.100055-50.362075l4.806699-16.065632q86.390663 25.982154 129.910771 51.964308Q1143.214784 711.997632 1143.214784 742.353449q0 24.986172-63.050027 51.228147-34.642872 14.420096-121.899607 41.354929-61.664313 19.096883-84.615216 27.714298-35.119212 12.991077-38.540195 20.006258-1.991965 4.027234 12.991077 11.735273a416.277414 416.277414 0 0 0 50.578594 19.313401 426.237239 426.237239 0 0 1 52.960291 20.266081q29.576352 15.416078 20.179473 34.123229-10.262951 20.525902-65.215207 34.25314-51.964308 12.991077-146.366136 21.651795z m9.137057 8.357593a10.522772 10.522772 0 0 1 0 1.645536 10.695987 10.695987 0 0 1-0.476339 1.558929 9.570093 9.570093 0 0 1-0.779465 1.472322 9.396879 9.396879 0 0 1-1.039286 1.255805 9.396879 9.396879 0 0 1-2.728126 1.81875 6.841967 6.841967 0 0 1-1.602233 0.47634 6.712056 6.712056 0 0 1-1.602233 0 9.05045 9.05045 0 0 1-3.247769-0.649554 11.605362 11.605362 0 0 1-1.429019-0.779465 7.275003 7.275003 0 0 1-1.255804-1.039286 15.026346 15.026346 0 0 1-1.082589-1.255804 6.668753 6.668753 0 0 1-0.736161-1.472322 8.357593 8.357593 0 0 1 0-6.408931 6.668753 6.668753 0 0 1 0.736161-1.472322 15.026346 15.026346 0 0 1 1.082589-1.255805 7.275003 7.275003 0 0 1 1.255804-1.039286 11.605362 11.605362 0 0 1 1.429019-0.779464 6.841967 6.841967 0 0 1 1.602233-0.47634 7.708039 7.708039 0 0 1 3.247769 0 6.841967 6.841967 0 0 1 1.602233 0.47634 9.396879 9.396879 0 0 1 2.728126 1.81875 9.396879 9.396879 0 0 1 1.039286 1.255805 9.570093 9.570093 0 0 1 0.779465 1.472322 10.695987 10.695987 0 0 1 0.476339 1.558929 10.522772 10.522772 0 0 1 0 1.818751z m204.869286-375.528735a10.089737 10.089737 0 0 1 0 1.645536 8.184379 8.184379 0 0 1-0.476339 1.558929 9.570093 9.570093 0 0 1-0.779465 1.472322 9.396879 9.396879 0 0 1-1.039286 1.255804 9.396879 9.396879 0 0 1-2.728126 1.818751 7.145092 7.145092 0 0 1-1.55893 0.47634 7.318307 7.318307 0 0 1-1.645536 0 6.841967 6.841967 0 0 1-1.645537 0 5.932592 5.932592 0 0 1-1.558929-0.47634 9.570093 9.570093 0 0 1-1.472322-0.779464 7.275003 7.275003 0 0 1-1.255804-1.039287 9.396879 9.396879 0 0 1-1.039286-1.255804 9.570093 9.570093 0 0 1-0.779465-1.472322 5.932592 5.932592 0 0 1-0.476339-1.558929 6.841967 6.841967 0 0 1 0-1.645536 7.318307 7.318307 0 0 1 0-1.645537 7.145092 7.145092 0 0 1 0.476339-1.558929 9.396879 9.396879 0 0 1 1.818751-2.728126 7.275003 7.275003 0 0 1 1.255804-1.039286 9.570093 9.570093 0 0 1 1.515626-0.736162 8.184379 8.184379 0 0 1 1.558929-0.476339 10.089737 10.089737 0 0 1 1.645537 0 11.172326 11.172326 0 0 1 1.645536 0 10.695987 10.695987 0 0 1 1.558929 0.476339 8.660718 8.660718 0 0 1 4.330359 4.33036 10.695987 10.695987 0 0 1 0.47634 1.558929 11.172326 11.172326 0 0 1 0.173214 1.818751z" p-id="6560" fill="#2c2c2c"></path><path d="M366.911321 861.741447a31.741532 31.741532 0 0 0 0 14.290185q17.321436 69.545566 375.312217 53.999577-119.431302-17.061615-119.474606-68.289762c0-51.184844 409.651964-85.308073 426.756883-119.474606a16.845097 16.845097 0 0 0 1.862054-7.578128q0-30.312513-121.250053-60.625026l-221.887597-51.228148q17.061615 68.246458 0 119.474606c-17.018311 51.271451-324.257284 34.209836-341.318898 119.431302z" p-id="6561" fill="#2c2c2c"></path><path d="M638.857868 497.03861A273.159048 273.159048 0 0 1 721.914154 8.400897c-5.629467 0.303125-11.258933 0.779465-16.8884 1.342411s-11.21563 1.342411-16.801793 2.165179-11.172326 1.862054-16.715186 2.987948-11.042416 2.338394-16.541972 3.724109-10.912505 2.901341-16.325453 4.330359-10.782594 3.37768-16.108936 5.283038-10.60938 3.897323-15.849114 6.062503-10.392862 4.330359-15.502685 6.75536-10.219647 4.893306-15.19956 7.534824-9.959826 5.369645-14.853132 8.227682-9.656701 5.802681-14.420095 8.92054-9.396879 6.279021-13.98706 9.570094-9.05045 6.712056-13.51072 10.26295-8.660718 7.101789-12.991077 10.869202S497.991289 104.188438 493.66093 108.258976s-8.054468 7.967861-11.951791 12.081701-7.664735 8.270986-11.345541 12.558042-7.2317 8.660718-10.73929 12.991077-6.841967 9.007147-10.089737 13.640631-6.408931 9.310272-9.440183 14.073667-5.975895 9.613397-8.660718 14.506702-5.499556 9.873219-8.054468 14.896435-5.06652 10.13304-7.36161 15.286168-4.330359 10.349558-6.668753 15.589292-4.027234 10.566076-5.889288 15.892418-3.594198 10.695987-5.06652 16.108935-3.031251 10.912505-4.330359 16.368758-2.511608 11.042416-3.594198 16.585275-1.991965 11.129023-2.77143 16.715186-1.472322 11.21563-1.991965 16.845096-0.952679 11.258933-1.212501 16.931704-0.389732 11.258933-0.389732 16.931704 0 11.735273 0.433036 17.581257 0.692857 11.691969 1.299108 17.321437 1.299108 11.648666 2.121876 17.321436 1.862054 11.605362 3.031251 17.321436 2.425001 11.475451 3.854019 17.321436 2.987948 11.345541 4.676788 16.975007 3.550894 11.172326 5.54286 16.715186 4.070537 10.955808 6.322324 16.412061 4.330359 10.999112 7.015182 16.412061 5.109824 10.522772 7.881253 15.719203 5.67277 10.262951 8.660718 15.286167a358.783237 358.783237 0 0 0 30.39912 43.130376c3.724109 4.546877 7.534825 8.963843 11.475452 13.337506s7.967861 8.660718 12.125005 12.731256 8.400897 8.184379 12.991077 12.125005 8.660718 7.794646 13.294202 11.518755 9.180361 7.318307 13.857149 10.825898 9.52679 6.841967 14.420096 10.13304 9.829915 6.365628 14.853131 9.396879 10.13304 5.889288 15.286168 8.660718 10.436165 5.412949 15.719203 7.924557 10.695987 4.893306 16.108936 7.101789 10.869201 4.330359 16.41206 6.365627 11.085719 3.810716 16.715186 5.499556 11.258933 3.291073 16.931704 4.676788 11.432148 2.728126 17.321436 3.897323 11.518755 2.121876 17.321436 2.987948 11.605362 1.558929 17.321436 2.16518 11.691969 0.995983 17.321437 1.299107 11.735273 0.433036 17.581257 0.433036 11.735273 0 17.624561-0.433036 11.691969-0.736161 17.537955-1.299107 11.648666-1.299108 17.321436-2.16518 11.562059-1.862054 17.321436-2.987948 11.475451-2.468305 17.321436-3.897323 11.345541-2.987948 16.931704-4.676788 11.21563-3.550894 16.715186-5.499556 10.999112-4.330359 16.41206-6.365627 10.782594-4.590181 16.108936-7.101789 10.522772-5.153127 15.6759-7.924557 10.306254-5.629467 15.329471-8.660718 10.003129-6.14911 14.853131-9.396879 9.700004-6.668753 14.376792-10.13304 9.353576-7.101789 13.900453-10.825898 8.963843-7.578128 13.294202-11.518755 8.660718-7.967861 12.774559-12.125005 8.184379-8.400897 12.125005-12.731256 7.751343-8.660718 11.475452-13.337506 7.318307-9.137058 10.825897-13.857149 6.885271-9.52679 10.13304-14.376792 6.408931-9.829915 9.396879-14.896435 5.932592-10.13304 8.660718-15.286167a380.118916 380.118916 0 0 0 15.026346-31.784835c2.251787-5.412949 4.330359-10.912505 6.322324-16.412061s3.810716-11.129023 5.54286-16.715186 3.247769-11.258933 4.676788-16.975007 2.728126-11.388844 3.854019-17.321436 2.16518-11.562059 2.987948-17.321437 1.602233-11.605362 2.16518-17.321436 0.995983-11.691969 1.299107-17.321436 0.433036-11.735273 0.433036-17.581257a360.372479 360.372479 0 0 0-2.987948-46.334842 369.163107 369.163107 0 0 0-8.963843-45.512073 357.86087 357.86087 0 0 0-35.119211-85.741109 273.332262 273.332262 0 0 1-322.26532 349.330063q2.121876-4.936609 10.912505-40.965197z m92.669683 40.965196h-0.736161v0.952679c0 0.043304 0.476339-0.389732 0.736161-0.952679z" fill="#2c2c2c" p-id="6562"></path><path d="M634.094473 503.967184a281.473337 281.473337 0 0 1-121.986214-231.977333A273.765298 273.765298 0 0 1 571.087749 99.598258 274.328245 274.328245 0 0 1 719.705671 0.303125l2.208483 8.097772 0.47634 8.357592a350.152831 350.152831 0 0 0-305.463527 478.374763 350.066224 350.066224 0 0 0 675.536009-128.871485 344.653275 344.653275 0 0 0-45.945109-173.214361l7.275003-4.330359 8.011164-2.511609a281.776462 281.776462 0 0 1-158.621051 345.259526 278.745211 278.745211 0 0 1-109.558083 22.128134 283.07557 283.07557 0 0 1-64.002707-7.318306 10.73929 10.73929 0 0 1-2.987948-1.342412 10.176344 10.176344 0 0 1-1.255804-1.125893 10.262951 10.262951 0 0 1-0.995982-1.299108 11.648666 11.648666 0 0 1-0.736161-1.472322 10.262951 10.262951 0 0 1-0.389733-1.558929 10.955808 10.955808 0 0 1 0-1.645536 6.841967 6.841967 0 0 1 0-1.645537 8.660718 8.660718 0 0 1 0.519643-1.472322c1.212501-2.858037 4.720091-16.022328 10.392862-39.579481l8.184379 1.991965v8.400896h-103.495581a8.660718 8.660718 0 0 1-4.763395-1.558929z m9.52679-13.857149l-4.763395 6.928575v-8.400897h103.582188a7.534825 7.534825 0 0 1 1.948661 0.259822 10.955808 10.955808 0 0 1 1.55893 0.519643 12.081702 12.081702 0 0 1 1.429018 0.822768 9.829915 9.829915 0 0 1 1.212501 1.125893 7.36161 7.36161 0 0 1 0.995982 1.299108 6.495539 6.495539 0 0 1 0.692858 1.472322 6.75536 6.75536 0 0 1 0.433036 1.602233 7.015182 7.015182 0 0 1 0 1.645536 7.145092 7.145092 0 0 1 0 1.645537c-5.932592 24.466529-9.743308 38.626803-11.388845 42.350911l-7.664735-3.37768 1.905358-8.184379a264.974669 264.974669 0 0 0 312.3921-338.590772 7.2317 7.2317 0 0 1-0.346428-1.385715v-1.429019a13.467417 13.467417 0 0 1 0-1.385714 7.36161 7.36161 0 0 1 0.433035-1.385715 8.660718 8.660718 0 0 1 0.606251-1.299108 10.73929 10.73929 0 0 1 0.822768-1.125893 7.491521 7.491521 0 0 1 1.039286-0.995983 11.302237 11.302237 0 0 1 1.169197-0.822768 9.396879 9.396879 0 0 1 1.515626-0.649554 9.613397 9.613397 0 0 1 1.602233-0.389732 10.306254 10.306254 0 0 1 1.645536 0 6.971878 6.971878 0 0 1 1.602233 0.303125 6.712056 6.712056 0 0 1 1.558929 0.562946l1.385715 0.866072a9.656701 9.656701 0 0 1 1.169197 1.125894 6.928574 6.928574 0 0 1 0.952679 1.342411 366.738106 366.738106 0 0 1 22.43126 316.765763A366.824713 366.824713 0 0 1 399.648835 235.528228 366.911321 366.911321 0 0 1 721.437815 0h1.429018a7.145092 7.145092 0 0 1 1.385715 0.303125 7.188396 7.188396 0 0 1 1.342411 0.519643 5.06652 5.06652 0 0 1 1.212501 0.736161 5.499556 5.499556 0 0 1 1.082589 0.909376 7.101789 7.101789 0 0 1 0.909376 1.082589 9.483486 9.483486 0 0 1 0.736161 1.255805 12.254916 12.254916 0 0 1 0.476339 1.342411 6.885271 6.885271 0 0 1 0.259822 1.645536 6.625449 6.625449 0 0 1 0 1.602233 7.448218 7.448218 0 0 1-0.346429 1.645537 6.495539 6.495539 0 0 1-0.692857 1.472322 5.802681 5.802681 0 0 1-0.952679 1.342411 6.019199 6.019199 0 0 1-1.212501 1.125893 5.716074 5.716074 0 0 1-1.385715 0.866072 6.538842 6.538842 0 0 1-1.515625 0.60625 258.002791 258.002791 0 0 0-139.78399 93.405845 257.483148 257.483148 0 0 0-55.428595 162.085338 264.151901 264.151901 0 0 0 114.71121 218.120185z m86.00093 56.07815h-0.736161l1.905358-8.184379h8.400897a7.015182 7.015182 0 0 0-6.495539-7.275003 6.928574 6.928574 0 0 0-8.660718 4.070537l7.664735 3.37768z m3.810716-16.368758a8.660718 8.660718 0 0 1 1.472322 0.519643 7.534825 7.534825 0 0 1 1.429019 0.779465 10.262951 10.262951 0 0 1 1.255804 1.08259 5.759378 5.759378 0 0 1 0.995982 1.299108 9.570093 9.570093 0 0 1 0.779465 1.472322 9.700004 9.700004 0 0 1 0.433036 1.602232 7.751343 7.751343 0 0 1 0 3.24777 8.660718 8.660718 0 0 1-17.321436-1.991965 9.180361 9.180361 0 0 1 0.216518-1.905358 8.227682 8.227682 0 0 1 0.519643-1.55893 7.83795 7.83795 0 0 1 0.866072-1.429018 7.275003 7.275003 0 0 1 1.082589-1.255804 10.262951 10.262951 0 0 1 1.299108-0.995983 9.137058 9.137058 0 0 1 1.472322-0.692857 6.75536 6.75536 0 0 1 1.602233-0.433036 7.751343 7.751343 0 0 1 3.247769 0z" p-id="6563" fill="#2c2c2c"></path><path d="M581.827039 567.017211l34.12323-51.228147 13.943756 9.310272-34.12323 51.228147z m15.372775 4.633485a10.60938 10.60938 0 0 1 0 1.645536 9.310272 9.310272 0 0 1-0.47634 1.558929 9.570093 9.570093 0 0 1-0.779464 1.472322 8.660718 8.660718 0 0 1-2.29509 2.295091 9.570093 9.570093 0 0 1-1.472323 0.779464 8.097771 8.097771 0 0 1-4.850002 0.47634 6.495539 6.495539 0 0 1-1.558929-0.47634 9.570093 9.570093 0 0 1-1.472322-0.779464 8.660718 8.660718 0 0 1-2.29509-2.295091 9.570093 9.570093 0 0 1-0.779465-1.472322 6.495539 6.495539 0 0 1-0.476339-1.558929 8.357593 8.357593 0 0 1 0.476339-4.850002 9.570093 9.570093 0 0 1 0.779465-1.472322 8.660718 8.660718 0 0 1 2.29509-2.29509 9.570093 9.570093 0 0 1 1.472322-0.779465 9.310272 9.310272 0 0 1 1.558929-0.47634 8.357593 8.357593 0 0 1 4.850002 0.47634 9.570093 9.570093 0 0 1 1.472323 0.779465 8.660718 8.660718 0 0 1 2.29509 2.29509 9.570093 9.570093 0 0 1 0.779464 1.472322 8.660718 8.660718 0 0 1 0.649554 3.204466z m34.123229-51.184844a6.712056 6.712056 0 0 1 0 1.602233 6.841967 6.841967 0 0 1-0.476339 1.602233 9.396879 9.396879 0 0 1-1.818751 2.728126 9.396879 9.396879 0 0 1-1.255804 1.039286 9.570093 9.570093 0 0 1-1.472322 0.779465 8.184379 8.184379 0 0 1-1.55893 0.476339 10.13304 10.13304 0 0 1-1.645536 0 10.522772 10.522772 0 0 1-1.645536 0 10.695987 10.695987 0 0 1-1.55893-0.476339 8.660718 8.660718 0 0 1-4.546877-4.330359 9.786611 9.786611 0 0 1-0.476339-1.602233 7.708039 7.708039 0 0 1 0-3.24777 9.786611 9.786611 0 0 1 0.476339-1.602232 9.137058 9.137058 0 0 1 0.779465-1.429019 7.275003 7.275003 0 0 1 1.039286-1.255804 10.73929 10.73929 0 0 1 1.299108-1.08259 5.586163 5.586163 0 0 1 1.429018-0.736161 8.660718 8.660718 0 0 1 3.204466-0.649554 6.841967 6.841967 0 0 1 1.645536 0 5.932592 5.932592 0 0 1 1.55893 0.47634 6.668753 6.668753 0 0 1 1.472322 0.736161 15.026346 15.026346 0 0 1 1.255804 1.08259 7.275003 7.275003 0 0 1 1.039286 1.255804 9.137058 9.137058 0 0 1 0.779465 1.429018 9.05045 9.05045 0 0 1 0.649553 3.247769z" p-id="6564" fill="#2c2c2c"></path><path d="M63.050027 717.237366q-68.289762 56.900918-51.184843 119.474606h785.180699q17.061615-193.437138-119.474605-210.542056t-170.702753 68.289762q-34.166533-153.641138-153.641139-136.53622T233.839388 694.459678q-102.499598-34.166533-170.789361 22.777688z" p-id="6565" fill="#2c2c2c"></path><path d="M68.419673 723.646298Q4.330359 777.126232 19.962955 834.503489l-8.097771 2.208483v-8.400897h785.180699v8.400897l-8.357593-0.736161q16.368757-185.38267-112.156299-201.448302-130.170592-16.28215-161.86882 63.050027a9.570093 9.570093 0 0 1-0.779465 1.472322 14.073667 14.073667 0 0 1-0.995982 1.255804 6.14911 6.14911 0 0 1-1.299108 1.08259 7.534825 7.534825 0 0 1-1.429019 0.779465l-1.558929 0.519643a10.089737 10.089737 0 0 1-1.645536 0 10.522772 10.522772 0 0 1-1.645537 0 10.695987 10.695987 0 0 1-1.558929-0.47634 8.184379 8.184379 0 0 1-5.06652-5.975895q-32.477693-146.019707-144.244259-129.910771t-112.28621 128.135324a8.660718 8.660718 0 0 1-0.649554 3.204465 9.570093 9.570093 0 0 1-0.779464 1.472323 8.660718 8.660718 0 0 1-2.295091 2.29509 9.570093 9.570093 0 0 1-1.472322 0.779464 8.660718 8.660718 0 0 1-3.204466 0.649554 7.83795 7.83795 0 0 1-2.641519-0.433036q-97.996025-32.650907-162.691588 21.21876z m-10.739291-12.991077q71.927264-59.888865 178.713917-24.293315l-2.554911 8.097772h-8.660718q0-126.706305 126.706305-144.85051t162.994714 142.901848l-8.184379 1.818751-7.794646-3.117859q36.54823-91.327272 179.536685-73.616103 144.547384 18.057597 126.792913 219.592506a5.889288 5.889288 0 0 1-0.303125 1.515626 8.660718 8.660718 0 0 1-0.519643 1.472322 12.991077 12.991077 0 0 1-0.822769 1.299108 6.712056 6.712056 0 0 1-1.039286 1.169197 8.400897 8.400897 0 0 1-1.255804 0.909375 5.932592 5.932592 0 0 1-1.385715 0.692858 8.660718 8.660718 0 0 1-3.031251 0.60625H11.865184a8.141075 8.141075 0 0 1-2.684823-0.47634 7.621432 7.621432 0 0 1-2.425001-1.255804 8.141075 8.141075 0 0 1-1.862054-1.991965 7.924557 7.924557 0 0 1-1.125894-2.468305q-18.490633-67.553601 53.91297-127.875502z" p-id="6566" fill="#2c2c2c"></path><path d="M110.857191 715.548526q-68.289762 56.900918-51.184844 119.517909H844.853047q17.018311-193.480441-119.517909-210.542056T554.675688 692.857445q-34.166533-153.641138-153.641138-136.53622T281.473337 692.857445q-102.326384-34.209836-170.616146 22.691081z" fill="#2c2c2c" p-id="6567"></path><path d="M116.226836 722.000761q-64.262528 53.479934-48.500021 110.857191l-8.054468 2.208483v-8.400896H844.853047v8.400896l-8.400897-0.736161q16.368757-185.38267-112.156299-201.448302-129.910771-16.325454-161.825516 63.050028a9.570093 9.570093 0 0 1-0.779465 1.472322 9.396879 9.396879 0 0 1-1.039286 1.255804 7.751343 7.751343 0 0 1-2.684823 1.862054 10.955808 10.955808 0 0 1-1.558929 0.519643 10.60938 10.60938 0 0 1-1.645537 0 7.101789 7.101789 0 0 1-1.645536 0 6.408931 6.408931 0 0 1-1.558929-0.433035 8.660718 8.660718 0 0 1-5.109824-5.975896q-32.391086-146.019707-144.244259-129.910771T290.134055 692.857445a8.660718 8.660718 0 0 1-0.649554 3.204466 9.570093 9.570093 0 0 1-0.779464 1.472322 9.396879 9.396879 0 0 1-1.039287 1.255804 9.396879 9.396879 0 0 1-2.728126 1.818751 10.695987 10.695987 0 0 1-1.558929 0.476339 11.172326 11.172326 0 0 1-1.645536 0 9.396879 9.396879 0 0 1-2.684823-0.433036q-98.125936-32.520996-162.8215 21.34867z m-10.73929-12.991077q72.057174-59.758955 178.713917-24.163403L281.473337 692.857445h-8.314289q0-126.792912 126.706305-144.85051t162.994714 142.901848l-8.184379 1.818751-7.794646-3.117858q36.504927-91.413879 179.493382-73.616104Q870.965112 634.267687 853.080729 835.759293c0 0.519643 0 0.995983-0.303125 1.515626a6.062503 6.062503 0 0 1-0.562947 1.472322 7.188396 7.188396 0 0 1-0.822768 1.299107 6.712056 6.712056 0 0 1-1.039286 1.169197 6.322324 6.322324 0 0 1-1.212501 0.909376 5.932592 5.932592 0 0 1-1.385715 0.692857 6.062503 6.062503 0 0 1-1.515625 0.433036 8.963843 8.963843 0 0 1-1.515626 0H59.672347a8.357593 8.357593 0 0 1-5.109823-1.68884 8.141075 8.141075 0 0 1-1.862055-1.991965 7.924557 7.924557 0 0 1-1.125893-2.468305q-18.490633-67.640208 53.91297-127.962109z" p-id="6568" fill="#2c2c2c"></path><path d="M1062.583499 118.348712q26.501797 20.785723 19.876348 43.650019H777.299446q-6.495539-70.584852 46.421449-76.863872t66.3411 24.942868q13.337506-56.294667 59.715651-49.885736t46.464753 49.885736q39.752696-12.471434 66.3411 8.270985z" fill="#2c2c2c" p-id="6569"></path><path d="M1057.387068 124.974162q22.084831 17.321436 17.018311 34.642872l8.054468 2.338394v-8.357593H777.299446v8.400896l8.357593-0.779464q-5.932592-62.487081 38.973231-67.770119 46.811181-5.456252 57.637079 19.919651a11.605362 11.605362 0 0 0 0.779465 1.429019 9.786611 9.786611 0 0 0 1.082589 1.255804 9.396879 9.396879 0 0 0 1.255804 1.039286 6.668753 6.668753 0 0 0 1.472322 0.736161 7.145092 7.145092 0 0 0 1.55893 0.47634 7.058485 7.058485 0 0 0 1.645536 0 6.841967 6.841967 0 0 0 1.645537 0 6.495539 6.495539 0 0 0 1.558929-0.47634 7.621432 7.621432 0 0 0 3.117858-2.338394 8.011164 8.011164 0 0 0 1.775448-3.464287q11.475451-48.629932 50.405379-43.30359t39.189749 41.571447a6.712056 6.712056 0 0 0 0 1.602232 6.841967 6.841967 0 0 0 0.476339 1.602233 5.586163 5.586163 0 0 0 0.736161 1.429019 10.73929 10.73929 0 0 0 1.08259 1.299107 7.275003 7.275003 0 0 0 1.602233 0.692858 11.605362 11.605362 0 0 0 1.429019 0.779464 9.786611 9.786611 0 0 0 1.602232 0.47634 10.13304 10.13304 0 0 0 1.645537 0 10.046433 10.046433 0 0 0 2.511608-0.346429q35.595551-11.172326 58.633061 6.885271z m10.349558-13.207595q-30.009388-23.51385-74.005836-9.700005l2.511609 8.011165H1004.643295q0-51.011629-53.696452-58.200026T881.92092 108.258976l8.141075 1.948661 7.751343-3.291073q-15.80581-36.937963-75.045122-30.009388-61.27458 7.188396-53.826363 86.000931a8.660718 8.660718 0 0 0 0.259822 1.515625 10.912505 10.912505 0 0 0 0.562946 1.429019 13.900452 13.900452 0 0 0 0.822769 1.342411 8.660718 8.660718 0 0 0 1.039286 1.125894 13.640631 13.640631 0 0 0 1.255804 0.952679l1.385715 0.692857a8.184379 8.184379 0 0 0 1.472322 0.389732 6.365628 6.365628 0 0 0 1.558929 0H1082.589758a9.396879 9.396879 0 0 0 2.684822-0.433036 9.613397 9.613397 0 0 0 2.381698-1.255804 9.916522 9.916522 0 0 0 1.862054-1.948661 7.275003 7.275003 0 0 0 1.125893-2.425001q8.227682-28.320548-22.777688-52.570559z" p-id="6570" fill="#2c2c2c"></path><path d="M213.270182 264.411722L281.473337 281.473337l17.321436-34.123229-68.462976-17.061615z" fill="#2c2c2c" p-id="6571"></path><path d="M244.535374 328.371125l46.897789-85.308073 7.188396 4.330359-2.035269 8.097772-68.289762-17.061615 2.035269-8.141075 7.188396 4.330359L190.535797 319.970229l-14.376792-8.660718 46.984396-85.351377a9.613397 9.613397 0 0 1 1.732143-2.035269 8.660718 8.660718 0 0 1 2.251787-1.385714 7.578128 7.578128 0 0 1 2.598216-0.606251 7.708039 7.708039 0 0 1 2.641519 0l68.289762 17.061615a8.660718 8.660718 0 0 1 2.29509 0.952679 7.36161 7.36161 0 0 1 1.299108 0.995982 7.491521 7.491521 0 0 1 1.125893 1.212501 8.963843 8.963843 0 0 1 0.822768 1.385715 7.534825 7.534825 0 0 1 0.562947 1.558929 7.145092 7.145092 0 0 1 0 1.645537 10.436165 10.436165 0 0 1 0 1.645536 7.36161 7.36161 0 0 1-0.433036 1.602233 6.495539 6.495539 0 0 1-0.692858 1.472322L258.95547 337.031843z m15.589293 4.330359a7.101789 7.101789 0 0 1 0 1.645537 6.495539 6.495539 0 0 1-0.47634 1.558929 6.668753 6.668753 0 0 1-0.736161 1.472322 15.026346 15.026346 0 0 1-1.082589 1.255804 7.275003 7.275003 0 0 1-1.255804 1.039286 11.605362 11.605362 0 0 1-1.429019 0.779465 9.05045 9.05045 0 0 1-3.247769 0.649554 6.712056 6.712056 0 0 1-1.602233 0 6.841967 6.841967 0 0 1-1.602233-0.47634 9.396879 9.396879 0 0 1-2.728126-1.81875 9.396879 9.396879 0 0 1-1.039286-1.255805 9.570093 9.570093 0 0 1-0.779465-1.472322 9.310272 9.310272 0 0 1-0.476339-1.558929 10.479469 10.479469 0 0 1 0-3.291073 10.695987 10.695987 0 0 1 0.476339-1.558929 9.570093 9.570093 0 0 1 0.779465-1.472322 9.396879 9.396879 0 0 1 1.039286-1.255804 9.396879 9.396879 0 0 1 2.728126-1.818751 9.786611 9.786611 0 0 1 1.602233-0.476339 7.708039 7.708039 0 0 1 3.247769 0 9.786611 9.786611 0 0 1 1.602233 0.476339 11.605362 11.605362 0 0 1 1.429019 0.779465 7.275003 7.275003 0 0 1 1.255804 1.039286 15.026346 15.026346 0 0 1 1.082589 1.255804 6.668753 6.668753 0 0 1 0.736161 1.472322 8.660718 8.660718 0 0 1 0.649554 3.204466z m-68.246458-17.061614a8.660718 8.660718 0 0 1-0.649554 3.204465A9.570093 9.570093 0 0 1 190.535797 320.446568a9.396879 9.396879 0 0 1-1.039286 1.255804 9.396879 9.396879 0 0 1-2.728126 1.818751 7.145092 7.145092 0 0 1-1.558929 0.47634 11.172326 11.172326 0 0 1-1.645537 0 10.089737 10.089737 0 0 1-1.645536 0 5.932592 5.932592 0 0 1-1.558929-0.47634 9.570093 9.570093 0 0 1-1.472322-0.779464 7.275003 7.275003 0 0 1-1.255805-1.039287 9.396879 9.396879 0 0 1-1.039286-1.255804 6.885271 6.885271 0 0 1-0.779464-1.472322 8.357593 8.357593 0 0 1 0-6.408931 6.885271 6.885271 0 0 1 0.779464-1.472322 9.396879 9.396879 0 0 1 1.039286-1.255804 7.275003 7.275003 0 0 1 1.255805-1.039287 9.570093 9.570093 0 0 1 1.472322-0.779464A5.932592 5.932592 0 0 1 181.875079 307.455491a6.841967 6.841967 0 0 1 1.645537 0 7.318307 7.318307 0 0 1 1.645536 0 7.145092 7.145092 0 0 1 1.558929 0.47634 9.396879 9.396879 0 0 1 2.728127 1.81875 9.396879 9.396879 0 0 1 1.039286 1.255805 9.570093 9.570093 0 0 1 0.779464 1.472322 8.660718 8.660718 0 0 1 0.649554 3.204465z" p-id="6572" fill="#2c2c2c"></path><path d="M162.171946 311.439421m-25.592422 0a25.592422 25.592422 0 1 0 51.184844 0 25.592422 25.592422 0 1 0-51.184844 0Z" fill="#2c2c2c" p-id="6573"></path><path d="M162.171946 343.527382a32.08796 32.08796 0 1 1 32.131264-32.087961 32.131264 32.131264 0 0 1-32.131264 32.087961z m0-51.184844a19.096883 19.096883 0 1 0 19.140187 19.096883 19.140187 19.140187 0 0 0-19.140187-19.096883z" p-id="6574" fill="#2c2c2c"></path><path d="M230.461708 328.501036m-25.592422 0a25.592422 25.592422 0 1 0 51.184843 0 25.592422 25.592422 0 1 0-51.184843 0Z" fill="#2c2c2c" p-id="6575"></path><path d="M230.461708 360.588996a32.08796 32.08796 0 1 1 32.08796-32.08796 32.08796 32.08796 0 0 1-32.08796 32.08796z m0-51.184843a19.096883 19.096883 0 1 0 19.096883 19.096883 19.140187 19.140187 0 0 0-19.096883-19.096883zM279.524675 289.657716l-68.289761-17.321437 4.070537-16.28215 68.289762 17.321437z" p-id="6576" fill="#2c2c2c"></path></svg>